<?xml version="1.0" encoding="utf-8"?>
<!-- Svg Vector Icons : http://www.onlinewebfonts.com/icon -->
<!DOCTYPE svg PUBLIC "-//W3C//DTD SVG 1.1//EN" "http://www.w3.org/Graphics/SVG/1.1/DTD/svg11.dtd">
<svg version="1.1" xmlns="http://www.w3.org/2000/svg" xmlns:xlink="http://www.w3.org/1999/xlink" x="0px" y="0px" viewBox="0 0 256 256" enable-background="new 0 0 256 256" xml:space="preserve">
<metadata> Svg Vector Icons : http://www.onlinewebfonts.com/icon </metadata>
<g><g><path fill="white" d="M189,246H47.4C26.7,246,10,229.3,10,208.6V67c0-20.6,16.7-37.4,37.4-37.4h70.8c5.9,0,9.8,3.9,9.8,9.8c0,5.9-3.9,9.8-9.8,9.8H47.4c-9.8,0-17.7,7.9-17.7,17.7v140.6c0,9.8,7.9,17.7,17.7,17.7H188c9.8,0,17.7-7.9,17.7-17.7v-69.8c0-5.9,3.9-9.8,9.8-9.8c5.9,0,9.8,3.9,9.8,9.8v70.8C226.3,229.3,209.6,246,189,246z"/>
    <path fill="white" d="M69,196.8c-3,0-4.9-1-6.9-3c-2-2-2.9-5.9-2.9-8.9l9.8-49.1c0-2,1-3.9,3-4.9L190,13c3.9-3.9,9.8-3.9,13.8,0l39.3,39.3c3.9,3.9,3.9,9.8,0,13.8l-118,118c-1,1-2.9,2-4.9,3L71,196.8C70,196.8,70,196.8,69,196.8z M87.7,142.8l-5.9,31.5l31.5-5.9L222.4,59.2l-25.6-25.6L87.7,142.8z"/></g></g>
</svg>
